<svg version="1.1" xmlns="http://www.w3.org/2000/svg" style="display: block;" viewBox="0 0 2048 2048" width="1024" height="1024" preserveAspectRatio="none">
<path transform="translate(0,0)" fill="rgb(49,56,62)" d="M 0 0 L 2048 0 L 2048 2048 L 0 2048 L 0 0 z"/>
<path transform="translate(0,0)" fill="rgb(254,254,254)" d="M 327.342 645.929 C 441.353 646.046 558.343 644.564 671.986 646.107 C 671.928 660.233 671.806 674.355 671.848 688.498 C 671.91 709.224 669.25 732.086 685.732 747.999 C 702.779 764.457 726.536 762.021 748.2 762.124 C 762.663 762.219 776.749 761.947 790.962 762.074 L 791.06 1212.35 L 327.945 1212.23 L 328.076 1175.01 C 313.119 1186.8 292.535 1216.88 275.231 1221.12 C 270.448 1221.78 266.789 1219.6 263.601 1216.73 C 224.55 1181.52 226.811 1182.09 262.843 1146.31 L 304.477 1104.54 C 310.364 1098.63 321.013 1088.6 326.012 1082.59 L 327.203 1081.14 L 327.342 645.929 z"/>
<path transform="translate(0,0)" fill="rgb(49,56,62)" d="M 487.044 921.051 C 470.248 902.588 449.495 885.857 432.818 867.008 C 427.303 860.775 423.596 849.851 430.062 843.059 C 454.64 817.242 480.124 791.826 506.012 767.325 C 510.323 763.244 516.998 764.561 522.277 765.254 C 528.977 770.58 538.84 780.817 545.238 787.094 L 585.411 826.559 C 602.55 843.281 620.59 860.67 637.213 877.859 C 655.331 897.087 675.946 914 693.127 933.897 C 697.385 938.829 697.883 947.99 693.441 952.751 C 669.147 978.79 643.338 1003.54 618.067 1028.65 C 614.128 1032.56 610.337 1033.53 604.815 1032.98 C 595.548 1031.5 584.105 1017.43 577.628 1011.29 C 562.849 997.282 549.109 981.887 534.024 968.387 C 518.481 952.492 502.821 936.713 487.044 921.051 z"/>
<path transform="translate(0,0)" fill="rgb(236,118,39)" d="M 487.044 921.051 C 502.821 936.713 518.481 952.492 534.024 968.387 L 389.783 1112.75 L 345.271 1158.01 C 341.441 1161.85 331.708 1172.04 328.076 1175.01 C 313.119 1186.8 292.535 1216.88 275.231 1221.12 C 270.448 1221.78 266.789 1219.6 263.601 1216.73 C 224.55 1181.52 226.811 1182.09 262.843 1146.31 L 304.477 1104.54 C 310.364 1098.63 321.013 1088.6 326.012 1082.59 L 327.203 1081.14 C 337.546 1072.98 365.126 1043.72 375.692 1033.11 C 412.31 996.335 451.746 958.761 487.044 921.051 z"/>
<path transform="translate(0,0)" fill="rgb(236,118,39)" d="M 585.411 826.559 C 606.275 804.13 608.841 811.373 629.043 830.642 C 647.743 848.48 661.293 856.987 637.213 877.859 C 620.59 860.67 602.55 843.281 585.411 826.559 z"/>
<path transform="translate(0,0)" fill="rgb(236,118,39)" d="M 725.94 773.428 C 728.837 772.972 730.463 772.706 732.513 774.064 C 731.549 781.069 725.516 800.484 723.269 808.221 C 707.263 813.572 691.338 819.165 675.5 824.998 C 672.06 826.12 671.895 826.828 668.966 826.059 C 671.094 821.029 677.036 811.619 679.864 806.431 C 685.396 796.284 691.11 785.689 697.017 775.785 C 706.662 775.049 716.303 774.263 725.94 773.428 z"/>
<path transform="translate(0,0)" fill="rgb(236,118,39)" d="M 600.163 699.413 C 606.873 705.676 618.076 719.011 624.541 726.326 C 621.807 735.42 613.383 781.867 610.795 785.031 C 602.153 767.293 593.315 749.65 584.285 732.107 C 589.867 722.141 595.256 709.881 600.163 699.413 z"/>
<path transform="translate(0,0)" fill="rgb(236,118,39)" d="M 758.703 880.215 L 761.932 879.812 C 767.542 882.1 784.443 899.502 789.747 904.472 C 779.706 909.398 768.205 914.257 757.887 918.853 L 748.618 913.494 C 735.189 905.646 721.657 897.976 708.026 890.486 C 724.826 887.545 741.971 883.734 758.703 880.215 z"/>
<path transform="translate(0,0)" fill="rgb(135,150,164)" d="M 377.918 1240.49 L 605.623 1240.29 C 655.599 1240.29 707.115 1239.63 756.902 1240.5 C 750.258 1283.31 713.065 1292.48 676.195 1300.38 C 649.576 1306.09 622.992 1312.46 620.866 1345.63 C 620.016 1358.89 625.528 1366.05 633.858 1375.16 L 648.033 1375.46 L 676.137 1375.5 L 676.17 1411.83 L 446.476 1412.08 C 446.62 1399.86 446.588 1387.63 446.379 1375.41 C 460.373 1375.54 474.368 1375.43 488.358 1375.09 C 501.007 1363.25 505.406 1349.48 500.044 1332.39 C 491.637 1305.57 458.633 1303.75 435.306 1298.03 C 400.791 1289.57 374.53 1276.63 363.783 1240.78 L 377.918 1240.49 z"/>
<path transform="translate(0,0)" fill="rgb(254,254,254)" d="M 1403.04 953.253 C 1417.1 952.535 1428.38 956.961 1436.9 968.367 C 1446.19 958.693 1454.38 953.7 1468.46 953.281 C 1516.38 951.858 1505.9 1015.42 1505.82 1049.09 L 1473.02 1049.2 C 1473.13 1038.41 1476.05 991.303 1468.37 986.669 C 1436.01 967.153 1442.23 1020.16 1442.47 1037.14 L 1442.68 1049.05 L 1409.94 1049.07 C 1409.98 1039.33 1412.82 991.445 1404.66 986.303 C 1371.57 965.474 1379.8 1033.45 1380 1049.02 L 1347.68 1048.96 C 1348.23 1018.48 1347.38 985.712 1347.45 954.904 C 1357.58 954.788 1368.01 954.901 1378.16 954.904 L 1378.74 965.482 C 1387.72 957.829 1391.59 955.463 1403.04 953.253 z"/>
<path transform="translate(0,0)" fill="rgb(254,254,254)" d="M 995.024 953.166 C 1042.15 949.692 1058.75 1001.2 1034.56 1035.27 C 1020.38 1055.25 992.905 1056.53 973.961 1040.09 L 974.007 1064.5 L 974.009 1081.81 L 941.13 1081.92 L 941.096 955.026 L 972.174 955.047 C 972.436 958.254 972.393 962.077 972.436 965.355 C 980.783 957.768 984.456 955.771 995.024 953.166 z"/>
<path transform="translate(0,0)" fill="rgb(49,56,62)" d="M 989.201 980.092 C 992.953 979.958 996.226 979.985 999.788 981.452 C 1004.82 983.553 1008.79 987.59 1010.81 992.652 C 1013.47 999.254 1013.26 1006.66 1010.25 1013.11 C 1006.98 1019.95 1003.44 1021.93 996.752 1024.45 C 969.916 1024.44 963.809 989.46 989.201 980.092 z"/>
<path transform="translate(0,0)" fill="rgb(254,254,254)" d="M 1128.89 920.845 L 1161.37 920.941 C 1161.02 963.641 1160.94 1006.34 1161.12 1049.04 C 1153.1 1048.97 1138.77 1051.13 1131.61 1047.32 C 1129.96 1046.44 1129.74 1042.29 1129.54 1040.42 C 1127.04 1040.89 1123.69 1043.07 1121.62 1044.56 C 1111.57 1051.83 1101.49 1052.32 1089.44 1049.73 C 1085.08 1048.44 1080.93 1046.51 1077.14 1044 C 1053.71 1028.36 1050.64 992.238 1066.66 970.408 C 1073.45 960.998 1083.8 954.792 1095.3 953.244 C 1109.28 951.423 1118.62 955.911 1129 964.217 L 1128.89 920.845 z"/>
<path transform="translate(0,0)" fill="rgb(49,56,62)" d="M 1103.02 981.065 C 1106.16 980.754 1110.31 980.53 1113.36 981.295 C 1118.55 982.645 1123.01 985.99 1125.76 990.604 C 1133.26 1003.45 1126.67 1016.68 1114.82 1023.79 C 1105.04 1024.8 1096.94 1022.35 1091.96 1013.23 C 1088.92 1007.59 1088.33 1000.94 1090.33 994.851 C 1092.75 987.452 1096.56 984.565 1103.02 981.065 z"/>
<path transform="translate(0,0)" fill="rgb(254,254,254)" d="M 1658.13 920.976 L 1691.1 921.021 L 1691.04 965.398 C 1699.92 957.77 1707.19 953.103 1719.25 953.223 C 1762.63 953.654 1755.97 995.809 1755.93 1025.91 C 1755.91 1033.93 1755.92 1041.48 1755.93 1049.09 L 1723.14 1049.11 L 1723.16 1027.5 C 1723.05 1017.44 1725.42 990.808 1718.92 986.584 C 1682.13 962.676 1691.12 1041.1 1691.19 1049.06 L 1658.88 1049.02 C 1659.14 1006.64 1658.07 963.566 1658.13 920.976 z"/>
<path transform="translate(0,0)" fill="rgb(254,254,254)" d="M 1839.74 954.973 L 1872.55 955.046 C 1862.03 981.368 1851.73 1007.78 1841.65 1034.28 C 1834.35 1053.57 1827.37 1077.29 1804.28 1082.31 C 1790.44 1085.31 1779.35 1081.4 1767.74 1074.38 C 1771.17 1067.41 1775.7 1059.55 1779.46 1052.63 C 1791.06 1058.54 1796.85 1059.11 1804.94 1048.2 C 1792.08 1021.14 1776.79 983.056 1765.74 955.02 L 1799.96 955.028 C 1806.06 974.509 1813.38 994.153 1820.4 1013.36 C 1827.07 993.969 1833.51 974.506 1839.74 954.973 z"/>
<path transform="translate(0,0)" fill="rgb(254,254,254)" d="M 1288.08 953.399 C 1303.51 952.586 1316.91 956.458 1330.65 962.982 L 1320.04 984.835 C 1311.28 980.893 1284.33 969.803 1279.75 982.718 C 1282.3 988.499 1293.26 990.981 1299.42 991.447 C 1323.89 993.298 1344.18 1016.19 1324.18 1037.93 C 1314.57 1048.37 1300.57 1050.46 1286.21 1051.04 C 1270.34 1050.72 1258.24 1046.03 1244.7 1038.37 C 1248.79 1031.56 1252.69 1024.63 1256.39 1017.59 C 1267.22 1023.42 1287.35 1032.23 1298.96 1025.15 C 1300.97 1022.08 1300.61 1023.7 1300.21 1020.16 C 1292.54 1009.91 1251.83 1014.66 1249.99 989.056 C 1248.16 963.531 1266.14 955.525 1288.08 953.399 z"/>
<path transform="translate(0,0)" fill="rgb(254,254,254)" d="M 1217.71 918.234 C 1231.77 917.049 1237.25 918.051 1249.35 924.844 C 1246.89 931.768 1244.63 940.384 1242.55 947.547 C 1235.17 943.822 1226.32 940.963 1220.38 951.357 C 1219.09 953.616 1219.74 955.043 1220.7 957.115 C 1225.22 959.201 1236.76 958.18 1242.37 958.067 L 1242.43 981.703 L 1220.83 981.749 L 1220.91 1038.5 C 1220.89 1042.21 1221.36 1045.37 1219.84 1048.52 C 1212.26 1049.56 1196.51 1049.06 1188.27 1049.03 C 1188.59 1026.66 1188.67 1004.29 1188.5 981.918 L 1174.98 981.875 L 1174.97 958.041 L 1188.68 958.095 C 1189.25 935.495 1195.89 924.397 1217.71 918.234 z"/>
<path transform="translate(0,0)" fill="rgb(254,254,254)" d="M 1587.07 933.151 L 1619.91 933.13 L 1619.91 958.706 L 1640.26 958.682 L 1640.36 982.009 L 1619.64 982.017 C 1619.77 992.08 1616.8 1013.52 1622.64 1021.73 C 1626.02 1026.49 1633.64 1022.92 1638.1 1021.04 L 1644.83 1044.02 C 1638.88 1054.24 1605.12 1052.97 1596.44 1042.06 C 1583.5 1025.81 1586.91 1001.83 1587 982.409 L 1574.07 982.516 L 1574.03 958.625 L 1587.02 958.709 L 1587.07 933.151 z"/>
<path transform="translate(0,0)" fill="rgb(254,254,254)" d="M 699.271 645.708 C 705.006 650.005 723.258 668.986 728.948 674.706 C 749.005 695.119 769.374 715.223 790.048 735.012 C 772.541 734.873 755.093 734.945 737.579 735.157 C 727.224 735.283 713.913 736.366 705.95 728.451 C 703.132 725.651 700.123 719.766 699.933 715.876 C 698.821 693.149 699.266 668.408 699.271 645.708 z"/>
<path transform="translate(0,0)" fill="rgb(254,254,254)" d="M 1528.34 955.374 L 1560.51 955.807 L 1560.74 1049.02 L 1528.49 1049.07 C 1528.17 1017.84 1528.12 986.604 1528.34 955.374 z"/>
<path transform="translate(0,0)" fill="rgb(254,254,254)" d="M 1540.26 912.118 C 1567.32 911.81 1572.19 939.87 1547.94 946.738 C 1520.97 947.628 1517.11 919.38 1540.26 912.118 z"/>
</svg>